<svg width="844" height="630" viewBox="0 0 422 315" fill="none" xmlns="http://www.w3.org/2000/svg">
<path d="M30.2223 305.194H12.4227L8.99252 313.352H0L17.058 275.064H25.7724L42.8304 313.352H33.5597L30.2223 305.194ZM27.4411 298.426L21.3225 283.779L15.2966 298.426H27.4411Z" fill="#4A3C00"/>
<path d="M81.674 313.352V290.454L70.3638 309.273H66.3774L55.1599 290.917V313.352H46.9091V275.064H54.2329L68.5097 298.89L82.601 275.064H89.9248L90.0176 313.352H81.674Z" fill="#4A3C00"/>
<path d="M117.552 314.001C113.565 314.001 110.043 313.167 106.798 311.405C103.646 309.737 101.143 307.326 99.2886 304.36C97.5272 301.393 96.6001 297.963 96.6001 294.255C96.6001 290.546 97.5272 287.116 99.2886 284.15C101.05 281.183 103.553 278.773 106.798 277.104C109.95 275.435 113.565 274.508 117.552 274.508C121.538 274.508 125.061 275.343 128.306 277.104C131.458 278.773 133.961 281.183 135.815 284.15C137.669 287.116 138.503 290.546 138.503 294.255C138.503 297.963 137.576 301.393 135.815 304.36C133.961 307.326 131.458 309.737 128.306 311.405C125.154 313.167 121.538 314.001 117.552 314.001ZM117.552 306.492C119.777 306.492 121.816 305.936 123.67 304.916C125.525 303.896 126.915 302.413 127.935 300.559C128.955 298.705 129.511 296.572 129.511 294.255C129.511 291.844 128.955 289.805 127.935 287.951C126.915 286.097 125.432 284.613 123.67 283.593C121.816 282.574 119.777 282.017 117.552 282.017C115.327 282.017 113.287 282.574 111.433 283.593C109.579 284.613 108.188 286.097 107.169 287.951C106.149 289.805 105.593 291.937 105.593 294.255C105.593 296.665 106.149 298.705 107.169 300.559C108.188 302.413 109.672 303.896 111.433 304.916C113.287 305.936 115.327 306.492 117.552 306.492Z" fill="#4A3C00"/>
<path d="M180.221 275.064V313.352H172.99L153.893 290.176V313.352H145.178V275.064H152.502L171.507 298.334V275.064H180.221Z" fill="#4A3C00"/>
<path d="M215.172 293.606H223.237V309.088C221.198 310.664 218.788 311.869 216.006 312.703C213.318 313.538 210.537 314.001 207.755 314.001C203.769 314.001 200.246 313.167 197.001 311.498C193.849 309.829 191.346 307.419 189.585 304.452C187.824 301.486 186.896 298.056 186.896 294.255C186.896 290.454 187.824 287.024 189.585 284.057C191.346 281.09 193.849 278.68 197.094 277.011C200.339 275.343 203.862 274.508 207.941 274.508C211.278 274.508 214.338 275.064 217.026 276.177C219.715 277.289 222.032 278.958 223.886 281.09L218.231 286.375C215.543 283.501 212.205 282.017 208.312 282.017C205.901 282.017 203.676 282.574 201.822 283.593C199.968 284.613 198.485 286.097 197.372 287.951C196.353 289.805 195.796 291.937 195.796 294.347C195.796 296.758 196.353 298.797 197.372 300.651C198.392 302.506 199.875 303.989 201.73 305.009C203.584 306.028 205.716 306.585 208.126 306.585C210.722 306.585 212.947 306.028 214.987 304.916V293.606H215.172Z" fill="#4A3C00"/>
<path d="M239.368 282.296H227.131V275.064H260.505V282.296H248.175V313.352H239.368V282.296Z" fill="#4A3C00"/>
<path d="M289.615 313.352L282.198 302.691H281.735H274.04V313.352H265.233V275.064H281.827C285.257 275.064 288.131 275.621 290.634 276.733C293.138 277.846 295.084 279.422 296.382 281.554C297.773 283.593 298.422 286.097 298.422 288.97C298.422 291.844 297.773 294.255 296.382 296.294C294.992 298.334 293.045 299.91 290.542 301.022L299.163 313.352H289.615ZM289.429 288.97C289.429 286.838 288.78 285.169 287.39 284.057C285.999 282.945 283.96 282.296 281.364 282.296H274.133V295.645H281.364C284.052 295.645 285.999 295.089 287.39 293.884C288.688 292.771 289.429 291.103 289.429 288.97Z" fill="#4A3C00"/>
<path d="M330.591 305.194H312.791L309.361 313.352H300.369L317.427 275.064H326.141L343.199 313.352H333.928L330.591 305.194ZM327.81 298.426L321.784 283.779L315.758 298.426H327.81Z" fill="#4A3C00"/>
<path d="M347.186 275.064H364.522C368.694 275.064 372.309 275.899 375.554 277.475C378.706 279.051 381.209 281.276 382.97 284.15C384.732 287.024 385.659 290.361 385.659 294.162C385.659 297.963 384.732 301.3 382.97 304.174C381.209 307.048 378.706 309.273 375.554 310.849C372.402 312.425 368.694 313.26 364.522 313.26H347.186V275.064ZM364.151 306.121C367.952 306.121 371.011 305.101 373.329 302.969C375.647 300.837 376.759 297.963 376.759 294.347C376.759 290.732 375.647 287.858 373.329 285.726C371.011 283.593 368.045 282.574 364.151 282.574H356.086V306.307H364.151V306.121Z" fill="#4A3C00"/>
<path d="M422 306.214V313.352H392.334V275.064H421.258V282.203H401.141V290.546H418.941V297.407H401.141V306.214H422Z" fill="#4A3C00"/>
<path d="M142.195 203.198C130.565 207.586 118.057 210 104.891 210C91.7249 210 79.2171 207.586 67.587 203.198V182.68C78.8879 188.057 91.5055 191.129 104.891 191.129C118.277 191.129 130.894 188.057 142.195 182.68V203.198Z" fill="#4A3C00"/>
<path d="M105 0C133.966 0 160.298 11.7398 179.279 30.721C198.26 49.7022 210 75.9248 210 105C210 132.21 199.687 157.006 182.68 175.658L181.473 172.367V172.257L175.11 155.031C185.204 140.878 191.129 123.652 191.129 105C191.129 81.1912 181.473 59.6865 165.893 44.1066C150.314 28.5267 128.809 18.8715 105 18.8715C81.1913 18.8715 59.6866 28.5267 44.1066 44.1066C28.5267 59.6865 18.8715 81.1912 18.8715 105C18.8715 123.652 24.7963 140.988 34.8903 155.031L32.2571 162.163L27.3198 175.549C10.4232 156.897 0 132.1 0 105C0 76.0345 11.7398 49.7022 30.721 30.721C49.7022 11.7398 76.0345 0 105 0Z" fill="#4A3C00"/>
<path d="M174.781 172.257L174.232 170.721L152.728 112.79L138.574 150.862L148.558 177.633V205.721L174.232 173.793L174.781 172.257ZM139.781 77.79L132.649 58.4797L129.467 49.812H120.251H89.969H80.7527L77.5709 58.4797L70.4392 77.79V87.0063L82.8374 120.47L99.1853 76.3637H105.439H111.035L127.383 120.47L139.781 87.0063V77.79ZM57.2731 112.79L35.7684 170.721L35.2198 172.257L35.7684 173.793L61.4424 205.721V177.743L71.4267 150.972L57.2731 112.79Z" fill="#4A3C00"/>
<path d="M160.737 73.5111L160.298 74.718C149.217 104.561 138.135 134.405 127.054 164.248L124.53 171.16H117.179H93.0412H85.6901L83.1666 164.248L49.922 74.718L49.4832 73.5111L49.922 72.3042L70.4393 46.8497V69.2321L100.392 150.094H109.828C119.812 123.104 129.797 96.2227 139.781 69.2321V46.8497L160.298 72.3042L160.737 73.5111Z" fill="#4A3C00"/>
</svg>
